<svg width="48" height="48" viewBox="0 0 48 48" fill="none" xmlns="http://www.w3.org/2000/svg">
<g id="hotel 1" clip-path="url(#clip0_39_113)">
<g id="Group">
<path id="Vector" d="M2.45255 27.6369H45.5475C46.842 27.6369 47.7583 26.3731 47.3582 25.1419C45.6459 19.8722 40.6956 16.0628 34.8549 16.0628H13.1452C7.30451 16.0628 2.3542 19.8722 0.641918 25.1419C0.241824 26.373 1.15806 27.6369 2.45255 27.6369Z" fill="url(#paint0_linear_39_113)"/>
<path id="Vector_2" d="M34.8732 16.0629V27.6368H45.5475C46.842 27.6368 47.7583 26.373 47.3583 25.1418C45.6478 19.8776 40.7059 16.0709 34.8732 16.0629Z" fill="url(#paint1_linear_39_113)"/>
<path id="Vector_3" d="M46.0935 48H1.90662V30.7006C1.90662 24.0175 7.3244 18.5997 14.0075 18.5997H33.9927C40.6758 18.5997 46.0936 24.0175 46.0936 30.7006L46.0935 48Z" fill="url(#paint2_linear_39_113)"/>
<path id="Vector_4" d="M34.8732 18.6318V48H46.0936V30.7006C46.0935 24.3137 41.1452 19.0829 34.8732 18.6318Z" fill="url(#paint3_linear_39_113)"/>
<path id="Vector_5" d="M34.8732 18.6318V48H46.0936V30.7006C46.0935 24.3137 41.1452 19.0829 34.8732 18.6318Z" fill="url(#paint4_linear_39_113)"/>
<path id="Vector_6" d="M34.8732 36.6431H46.0936V48H34.8732V36.6431Z" fill="url(#paint5_linear_39_113)"/>
<path id="Vector_7" d="M1.90662 36.6431H13.127V48H1.90662V36.6431Z" fill="url(#paint6_linear_39_113)"/>
<path id="Vector_8" d="M5.89807 48H13.9294V18.6008C10.8404 18.6203 8.02598 19.7968 5.89807 21.7194V48Z" fill="url(#paint7_linear_39_113)"/>
<g id="Group_2">
<g id="Group_3">
<path id="Vector_9" d="M8.39443 45.9016H5.28854C4.5884 45.9016 4.02087 45.334 4.02087 44.6339V41.528C4.02087 40.8279 4.5884 40.2603 5.28854 40.2603H8.39443C9.09457 40.2603 9.6621 40.8279 9.6621 41.528V44.6339C9.66219 45.334 9.09457 45.9016 8.39443 45.9016Z" fill="url(#paint8_linear_39_113)"/>
<path id="Vector_10" d="M8.39443 45.9016H5.28854C4.5884 45.9016 4.02087 45.334 4.02087 44.6339V41.528C4.02087 40.8279 4.5884 40.2603 5.28854 40.2603H8.39443C9.09457 40.2603 9.6621 40.8279 9.6621 41.528V44.6339C9.66219 45.334 9.09457 45.9016 8.39443 45.9016Z" fill="url(#paint9_linear_39_113)"/>
<path id="Vector_11" d="M4.02087 44.6339V41.528C4.02087 40.8279 4.5884 40.2603 5.28854 40.2603H8.39443C9.09457 40.2603 9.6621 40.8279 9.6621 41.528V44.6339C9.6621 45.334 9.09457 45.9016 8.39443 45.9016H5.28854C4.5884 45.9016 4.02087 45.334 4.02087 44.6339Z" fill="url(#paint10_linear_39_113)"/>
</g>
<g id="Group_4">
<path id="Vector_12" d="M42.7114 45.9016H39.6056C38.9054 45.9016 38.3379 45.334 38.3379 44.6339V41.528C38.3379 40.8279 38.9054 40.2603 39.6056 40.2603H42.7114C43.4116 40.2603 43.9791 40.8279 43.9791 41.528V44.6339C43.9791 45.334 43.4116 45.9016 42.7114 45.9016Z" fill="url(#paint11_linear_39_113)"/>
<path id="Vector_13" d="M42.7114 45.9016H39.6056C38.9054 45.9016 38.3379 45.334 38.3379 44.6339V41.528C38.3379 40.8279 38.9054 40.2603 39.6056 40.2603H42.7114C43.4116 40.2603 43.9791 40.8279 43.9791 41.528V44.6339C43.9791 45.334 43.4116 45.9016 42.7114 45.9016Z" fill="url(#paint12_linear_39_113)"/>
<path id="Vector_14" d="M38.3378 44.6339V41.528C38.3378 40.8279 38.9053 40.2603 39.6054 40.2603H42.7113C43.4115 40.2603 43.979 40.8279 43.979 41.528V44.6339C43.979 45.334 43.4115 45.9016 42.7113 45.9016H39.6054C38.9054 45.9016 38.3378 45.334 38.3378 44.6339Z" fill="url(#paint13_linear_39_113)"/>
</g>
</g>
<g id="Group_5">
<path id="Vector_15" d="M26.6268 38.3621H1.232C0.551624 38.3621 0 37.8106 0 37.1301V35.1006C0 34.4202 0.55153 33.8686 1.232 33.8686H26.6268C27.3072 33.8686 27.8588 34.4202 27.8588 35.1006V37.1301C27.8588 37.8106 27.3073 38.3621 26.6268 38.3621Z" fill="url(#paint14_linear_39_113)"/>
<path id="Vector_16" d="M26.8921 33.8687H13.9294V38.3622H26.8921C27.426 38.3622 27.8589 37.6593 27.8589 36.7923V35.4387C27.8589 34.5716 27.426 33.8687 26.8921 33.8687Z" fill="url(#paint15_linear_39_113)"/>
<path id="Vector_17" d="M0 35.657V36.7922C0 37.6592 0.432847 38.3621 0.966777 38.3621H26.8921C27.426 38.3621 27.8588 37.6592 27.8588 36.7922V35.657H0Z" fill="url(#paint16_linear_39_113)"/>
</g>
<g id="Group_6">
<path id="Vector_18" d="M46.7681 38.3621H21.3732C20.6929 38.3621 20.1412 37.8106 20.1412 37.1301V35.1006C20.1412 34.4202 20.6928 33.8686 21.3732 33.8686H46.7681C47.4484 33.8686 48.0001 34.4202 48.0001 35.1006V37.1301C48.0001 37.8106 47.4485 38.3621 46.7681 38.3621Z" fill="url(#paint17_linear_39_113)"/>
<path id="Vector_19" d="M47.0333 33.8687H34.0707V38.3622H47.0333C47.5672 38.3622 48.0001 37.6593 48.0001 36.7923V35.4387C48.0001 34.5716 47.5672 33.8687 47.0333 33.8687Z" fill="url(#paint18_linear_39_113)"/>
<path id="Vector_20" d="M20.1412 35.657V36.7922C20.1412 37.6592 20.5741 38.3621 21.108 38.3621H47.0333C47.5672 38.3621 48.0001 37.6592 48.0001 36.7922V35.657H20.1412Z" fill="url(#paint19_linear_39_113)"/>
</g>
<path id="Vector_21" d="M12.5838 48H0.475231C0.112408 48 -0.115075 47.6103 0.0604548 47.2926C0.470055 46.5512 1.23645 46.0339 2.1286 45.9699C2.23683 45.4617 2.48718 44.9779 2.88248 44.5826C3.95448 43.5106 5.6806 43.4946 6.77518 44.5299C7.60248 43.8955 8.79024 43.9548 9.54695 44.7115C9.89707 45.0617 10.0966 45.504 10.1493 45.9605H11.0444C11.9619 45.9605 12.7431 46.5469 13.0322 47.3662C13.1413 47.6754 12.9117 48 12.5838 48Z" fill="url(#paint20_linear_39_113)"/>
<path id="Vector_22" d="M11.2905 2.63144H36.7096V48H11.2905V2.63144Z" fill="url(#paint21_linear_39_113)"/>
<path id="Vector_23" d="M11.2905 2.63144H36.7096V14.2118H11.2905V2.63144Z" fill="url(#paint22_linear_39_113)"/>
<path id="Vector_24" d="M11.2905 33.8687H36.7096V44.9905H11.2905V33.8687Z" fill="url(#paint23_linear_39_113)"/>
<path id="Vector_25" d="M11.2905 36.8782H36.7096V48H11.2905V36.8782Z" fill="url(#paint24_linear_39_113)"/>
<path id="Vector_26" d="M24 2.63144H36.7096V48H24V2.63144Z" fill="url(#paint25_linear_39_113)"/>
<g id="Group_7">
<g id="Group_8">
<path id="Vector_27" d="M13.3336 29.5222V32.3413C13.3336 32.6847 13.0552 32.9631 12.7118 32.9631C12.3684 32.9631 12.09 32.6847 12.09 32.3413V29.5222C12.09 29.1787 12.3684 28.9003 12.7118 28.9003C13.0552 28.9003 13.3336 29.1787 13.3336 29.5222Z" fill="url(#paint26_linear_39_113)"/>
</g>
<g id="Group_9">
<path id="Vector_28" d="M16.5102 29.5222V32.3413C16.5102 32.6847 16.2317 32.9631 15.8883 32.9631C15.5449 32.9631 15.2665 32.6847 15.2665 32.3413V29.5222C15.2665 29.1787 15.5449 28.9003 15.8883 28.9003C16.2317 28.9003 16.5102 29.1787 16.5102 29.5222Z" fill="url(#paint27_linear_39_113)"/>
</g>
<g id="Group_10">
<path id="Vector_29" d="M20.2992 30.344V32.4899C20.2992 32.7513 20.0208 32.9632 19.6774 32.9632C19.3339 32.9632 19.0555 32.7512 19.0555 32.4899V30.344C19.0555 30.0825 19.3339 29.8707 19.6774 29.8707C20.0208 29.8706 20.2992 30.0825 20.2992 30.344Z" fill="url(#paint28_linear_39_113)"/>
</g>
<g id="Group_11">
<path id="Vector_30" d="M25.2302 30.344V32.4899C25.2302 32.7513 24.9518 32.9632 24.6084 32.9632C24.265 32.9632 23.9866 32.7512 23.9866 32.4899V30.344C23.9866 30.0825 24.265 29.8707 24.6084 29.8707C24.9518 29.8706 25.2302 30.0825 25.2302 30.344Z" fill="url(#paint29_linear_39_113)"/>
</g>
<g id="Group_12">
<path id="Vector_31" d="M30.2418 30.344V32.4899C30.2418 32.7513 29.9634 32.9632 29.62 32.9632C29.2766 32.9632 28.9982 32.7512 28.9982 32.4899V30.344C28.9982 30.0825 29.2766 29.8707 29.62 29.8707C29.9634 29.8706 30.2418 30.0825 30.2418 30.344Z" fill="url(#paint30_linear_39_113)"/>
</g>
<g id="Group_13">
<path id="Vector_32" d="M34.8732 30.344V32.4899C34.8732 32.7513 34.5948 32.9632 34.2514 32.9632C33.9079 32.9632 33.6295 32.7512 33.6295 32.4899V30.344C33.6295 30.0825 33.9079 29.8707 34.2514 29.8707C34.5948 29.8706 34.8732 30.0825 34.8732 30.344Z" fill="url(#paint31_linear_39_113)"/>
</g>
<g id="Group_14">
<path id="Vector_33" d="M15.8908 24.3419C15.5421 24.3419 15.1934 24.4671 15.1934 24.7622V26.9528H13.4141V24.7622C13.4141 24.4671 13.0654 24.3419 12.7167 24.3419C12.368 24.3419 12.0193 24.4671 12.0193 24.7622V30.4489C12.0193 30.735 12.368 30.8781 12.7167 30.8781C13.0654 30.8781 13.4141 30.735 13.4141 30.4489V28.0258H15.1934V30.4489C15.1934 30.735 15.5421 30.8781 15.8908 30.8781C16.2395 30.8781 16.5882 30.735 16.5882 30.4489V24.7622C16.5883 24.4671 16.2396 24.3419 15.8908 24.3419Z" fill="url(#paint32_linear_39_113)"/>
<path id="Vector_34" d="M19.6729 24.3419C18.439 24.3419 17.4823 24.9142 17.4823 26.4521V28.8215C17.4823 30.3595 18.439 30.9318 19.6729 30.9318C20.9068 30.9318 21.8724 30.3595 21.8724 28.8215V26.4521C21.8724 24.9142 20.9068 24.3419 19.6729 24.3419ZM20.4776 28.8215C20.4776 29.4386 20.1737 29.7157 19.6729 29.7157C19.1721 29.7157 18.8771 29.4386 18.8771 28.8215V26.4521C18.8771 25.8351 19.1722 25.558 19.6729 25.558C20.1736 25.558 20.4776 25.8351 20.4776 26.4521V28.8215Z" fill="url(#paint33_linear_39_113)"/>
<path id="Vector_35" d="M26.5398 24.3419H22.6771C22.382 24.3419 22.2568 24.6639 22.2568 24.959C22.2568 25.2987 22.4088 25.5938 22.6771 25.5938H23.911V30.4489C23.911 30.735 24.2597 30.8781 24.6084 30.8781C24.9571 30.8781 25.3058 30.735 25.3058 30.4489V25.5938H26.5397C26.8079 25.5938 26.9599 25.2987 26.9599 24.959C26.96 24.6639 26.8348 24.3419 26.5398 24.3419Z" fill="url(#paint34_linear_39_113)"/>
<path id="Vector_36" d="M31.3053 25.558C31.5737 25.558 31.7257 25.2719 31.7257 24.941C31.7257 24.6549 31.6005 24.3419 31.3053 24.3419H28.1223C27.8184 24.3419 27.5143 24.4851 27.5143 24.7712V30.4489C27.5143 30.735 27.8183 30.8781 28.1223 30.8781H31.3053C31.6005 30.8781 31.7257 30.5652 31.7257 30.279C31.7257 29.9482 31.5737 29.6621 31.3053 29.6621H28.9091V28.1421H30.2503C30.5454 28.1421 30.6705 27.856 30.6705 27.6146C30.6705 27.3285 30.5186 27.0692 30.2503 27.0692H28.9091V25.5581H31.3053V25.558Z" fill="url(#paint35_linear_39_113)"/>
<path id="Vector_37" d="M35.7669 29.6621H33.7283V24.7622C33.7283 24.4671 33.3796 24.3419 33.0309 24.3419C32.6822 24.3419 32.3335 24.4671 32.3335 24.7622V30.4489C32.3335 30.735 32.6375 30.8781 32.9415 30.8781H35.767C36.0353 30.8781 36.1694 30.5741 36.1694 30.2701C36.1693 29.966 36.0352 29.6621 35.7669 29.6621Z" fill="url(#paint36_linear_39_113)"/>
</g>
<g id="Group_15">
<path id="Vector_38" d="M36.6975 36.1154H11.3027C10.6223 36.1154 10.0707 35.5638 10.0707 34.8834V32.8539C10.0707 32.1735 10.6222 31.6219 11.3027 31.6219H36.6975C37.3779 31.6219 37.9295 32.1734 37.9295 32.8539V34.8834C37.9295 35.5638 37.378 36.1154 36.6975 36.1154Z" fill="url(#paint37_linear_39_113)"/>
<path id="Vector_39" d="M36.9628 31.6219H24.0001V36.1154H36.9628C37.4967 36.1154 37.9295 35.4125 37.9295 34.5455V33.1919C37.9295 32.3248 37.4967 31.6219 36.9628 31.6219Z" fill="url(#paint38_linear_39_113)"/>
<path id="Vector_40" d="M10.0707 33.4102V34.5454C10.0707 35.4124 10.5035 36.1153 11.0375 36.1153H36.9627C37.4967 36.1153 37.9295 35.4124 37.9295 34.5454V33.4102H10.0707Z" fill="url(#paint39_linear_39_113)"/>
</g>
</g>
<g id="Group_16">
<path id="Vector_41" d="M36.6975 4.49346H11.3027C10.6223 4.49346 10.0707 3.94193 10.0707 3.26146V1.232C10.0707 0.551529 10.6222 0 11.3027 0H36.6975C37.378 0 37.9295 0.551529 37.9295 1.232V3.26146C37.9295 3.94184 37.378 4.49346 36.6975 4.49346Z" fill="url(#paint40_linear_39_113)"/>
<path id="Vector_42" d="M36.9628 0H24.0001V4.49346H36.9628C37.4967 4.49346 37.9295 3.79059 37.9295 2.92358V1.56988C37.9295 0.702871 37.4967 0 36.9628 0Z" fill="url(#paint41_linear_39_113)"/>
<path id="Vector_43" d="M10.0707 1.78824V2.92349C10.0707 3.7905 10.5035 4.49337 11.0375 4.49337H36.9627C37.4967 4.49337 37.9295 3.7905 37.9295 2.92349V1.78824H10.0707Z" fill="url(#paint42_linear_39_113)"/>
</g>
<g id="Group_17">
<g id="Group_18">
<path id="Vector_44" d="M17.9655 21.7041H14.8596C14.1594 21.7041 13.5919 21.1366 13.5919 20.4364V17.3305C13.5919 16.6304 14.1594 16.0629 14.8596 16.0629H17.9655C18.6656 16.0629 19.2331 16.6304 19.2331 17.3305V20.4364C19.2331 21.1365 18.6656 21.7041 17.9655 21.7041Z" fill="url(#paint43_linear_39_113)"/>
<path id="Vector_45" d="M17.9655 21.7041H14.8596C14.1594 21.7041 13.5919 21.1366 13.5919 20.4364V17.3305C13.5919 16.6304 14.1594 16.0629 14.8596 16.0629H17.9655C18.6656 16.0629 19.2331 16.6304 19.2331 17.3305V20.4364C19.2331 21.1365 18.6656 21.7041 17.9655 21.7041Z" fill="url(#paint44_linear_39_113)"/>
<path id="Vector_46" d="M13.5918 20.4363V17.3304C13.5918 16.6303 14.1593 16.0628 14.8595 16.0628H17.9654C18.6655 16.0628 19.233 16.6303 19.233 17.3304V20.4363C19.233 21.1365 18.6655 21.704 17.9654 21.704H14.8595C14.1594 21.7041 13.5918 21.1365 13.5918 20.4363Z" fill="url(#paint45_linear_39_113)"/>
</g>
<g id="Group_19">
<path id="Vector_47" d="M25.5529 21.7041H22.447C21.7469 21.7041 21.1793 21.1366 21.1793 20.4364V17.3305C21.1793 16.6304 21.7469 16.0629 22.447 16.0629H25.5529C26.253 16.0629 26.8205 16.6304 26.8205 17.3305V20.4364C26.8205 21.1365 26.253 21.7041 25.5529 21.7041Z" fill="url(#paint46_linear_39_113)"/>
<path id="Vector_48" d="M25.5529 21.7041H22.447C21.7469 21.7041 21.1793 21.1366 21.1793 20.4364V17.3305C21.1793 16.6304 21.7469 16.0629 22.447 16.0629H25.5529C26.253 16.0629 26.8205 16.6304 26.8205 17.3305V20.4364C26.8205 21.1365 26.253 21.7041 25.5529 21.7041Z" fill="url(#paint47_linear_39_113)"/>
<path id="Vector_49" d="M21.1793 20.4363V17.3304C21.1793 16.6303 21.7469 16.0628 22.447 16.0628H25.5529C26.253 16.0628 26.8205 16.6303 26.8205 17.3304V20.4363C26.8205 21.1365 26.253 21.704 25.5529 21.704H22.447C21.7469 21.7041 21.1793 21.1365 21.1793 20.4363Z" fill="url(#paint48_linear_39_113)"/>
</g>
<g id="Group_20">
<path id="Vector_50" d="M33.1404 21.7041H30.0345C29.3344 21.7041 28.7668 21.1366 28.7668 20.4364V17.3305C28.7668 16.6304 29.3344 16.0629 30.0345 16.0629H33.1404C33.8405 16.0629 34.4081 16.6304 34.4081 17.3305V20.4364C34.4082 21.1365 33.8405 21.7041 33.1404 21.7041Z" fill="url(#paint49_linear_39_113)"/>
<path id="Vector_51" d="M33.1404 21.7041H30.0345C29.3344 21.7041 28.7668 21.1366 28.7668 20.4364V17.3305C28.7668 16.6304 29.3344 16.0629 30.0345 16.0629H33.1404C33.8405 16.0629 34.4081 16.6304 34.4081 17.3305V20.4364C34.4082 21.1365 33.8405 21.7041 33.1404 21.7041Z" fill="url(#paint50_linear_39_113)"/>
<path id="Vector_52" d="M28.7668 20.4363V17.3304C28.7668 16.6303 29.3344 16.0628 30.0345 16.0628H33.1404C33.8405 16.0628 34.4081 16.6303 34.4081 17.3304V20.4363C34.4081 21.1365 33.8405 21.704 33.1404 21.704H30.0345C29.3344 21.7041 28.7668 21.1365 28.7668 20.4363Z" fill="url(#paint51_linear_39_113)"/>
</g>
</g>
<g id="Group_21">
<g id="Group_22">
<path id="Vector_53" d="M17.9655 12.9825H14.8596C14.1594 12.9825 13.5919 12.415 13.5919 11.7148V8.60895C13.5919 7.90881 14.1594 7.34128 14.8596 7.34128H17.9655C18.6656 7.34128 19.2331 7.90881 19.2331 8.60895V11.7148C19.2331 12.4149 18.6656 12.9825 17.9655 12.9825Z" fill="url(#paint52_linear_39_113)"/>
<path id="Vector_54" d="M17.9655 12.9825H14.8596C14.1594 12.9825 13.5919 12.415 13.5919 11.7148V8.60895C13.5919 7.90881 14.1594 7.34128 14.8596 7.34128H17.9655C18.6656 7.34128 19.2331 7.90881 19.2331 8.60895V11.7148C19.2331 12.4149 18.6656 12.9825 17.9655 12.9825Z" fill="url(#paint53_linear_39_113)"/>
<path id="Vector_55" d="M13.5918 11.7147V8.60886C13.5918 7.90872 14.1593 7.34119 14.8595 7.34119H17.9654C18.6655 7.34119 19.233 7.90872 19.233 8.60886V11.7147C19.233 12.4149 18.6655 12.9824 17.9654 12.9824H14.8595C14.1594 12.9825 13.5918 12.4149 13.5918 11.7147Z" fill="url(#paint54_linear_39_113)"/>
</g>
<g id="Group_23">
<path id="Vector_56" d="M25.5529 12.9825H22.447C21.7469 12.9825 21.1793 12.415 21.1793 11.7148V8.60895C21.1793 7.90881 21.7469 7.34128 22.447 7.34128H25.5529C26.253 7.34128 26.8205 7.90881 26.8205 8.60895V11.7148C26.8205 12.4149 26.253 12.9825 25.5529 12.9825Z" fill="url(#paint55_linear_39_113)"/>
<path id="Vector_57" d="M25.5529 12.9825H22.447C21.7469 12.9825 21.1793 12.415 21.1793 11.7148V8.60895C21.1793 7.90881 21.7469 7.34128 22.447 7.34128H25.5529C26.253 7.34128 26.8205 7.90881 26.8205 8.60895V11.7148C26.8205 12.4149 26.253 12.9825 25.5529 12.9825Z" fill="url(#paint56_linear_39_113)"/>
<path id="Vector_58" d="M21.1793 11.7147V8.60886C21.1793 7.90872 21.7469 7.34119 22.447 7.34119H25.5529C26.253 7.34119 26.8205 7.90872 26.8205 8.60886V11.7147C26.8205 12.4149 26.253 12.9824 25.5529 12.9824H22.447C21.7469 12.9825 21.1793 12.4149 21.1793 11.7147Z" fill="url(#paint57_linear_39_113)"/>
</g>
<g id="Group_24">
<path id="Vector_59" d="M33.1404 12.9825H30.0345C29.3344 12.9825 28.7668 12.415 28.7668 11.7148V8.60895C28.7668 7.90881 29.3344 7.34128 30.0345 7.34128H33.1404C33.8405 7.34128 34.4081 7.90881 34.4081 8.60895V11.7148C34.4082 12.4149 33.8405 12.9825 33.1404 12.9825Z" fill="url(#paint58_linear_39_113)"/>
<path id="Vector_60" d="M33.1404 12.9825H30.0345C29.3344 12.9825 28.7668 12.415 28.7668 11.7148V8.60895C28.7668 7.90881 29.3344 7.34128 30.0345 7.34128H33.1404C33.8405 7.34128 34.4081 7.90881 34.4081 8.60895V11.7148C34.4082 12.4149 33.8405 12.9825 33.1404 12.9825Z" fill="url(#paint59_linear_39_113)"/>
<path id="Vector_61" d="M28.7668 11.7147V8.60886C28.7668 7.90872 29.3344 7.34119 30.0345 7.34119H33.1404C33.8405 7.34119 34.4081 7.90872 34.4081 8.60886V11.7147C34.4081 12.4149 33.8405 12.9824 33.1404 12.9824H30.0345C29.3344 12.9825 28.7668 12.4149 28.7668 11.7147Z" fill="url(#paint60_linear_39_113)"/>
</g>
</g>
<g id="Group_25">
<path id="Vector_62" d="M28.8482 48H19.152V39.4296C19.152 38.7294 19.7195 38.1619 20.4196 38.1619H27.5804C28.2805 38.1619 28.8481 38.7294 28.8481 39.4296L28.8482 48Z" fill="url(#paint61_linear_39_113)"/>
<path id="Vector_63" d="M28.8482 48H19.152V39.4296C19.152 38.7294 19.7195 38.1619 20.4196 38.1619H27.5804C28.2805 38.1619 28.8481 38.7294 28.8481 39.4296L28.8482 48Z" fill="url(#paint62_linear_39_113)"/>
<path id="Vector_64" d="M19.152 48V39.4296C19.152 38.7294 19.7195 38.1619 20.4196 38.1619H27.5804C28.2805 38.1619 28.8481 38.7294 28.8481 39.4296V48H19.152Z" fill="url(#paint63_linear_39_113)"/>
<path id="Vector_65" d="M27.5805 38.1619H24.0001V48H28.8482V39.4296C28.8482 38.7294 28.2807 38.1619 27.5805 38.1619Z" fill="url(#paint64_linear_39_113)"/>
</g>
<path id="Vector_66" d="M41.2686 46.8006C41.2667 45.2957 40.0462 44.0753 38.5408 44.0753C37.2149 44.0753 36.1104 45.0217 35.8643 46.2755C35.6712 46.199 35.4608 46.1558 35.2405 46.1558C34.3088 46.1558 33.553 46.9116 33.553 47.8433V47.8443C33.5531 47.9311 33.6255 48 33.7118 48H42.1468C42.2515 48 42.327 47.9005 42.3006 47.7991C42.1712 47.3023 41.772 46.914 41.2686 46.8006Z" fill="url(#paint65_linear_39_113)"/>
</g>
</g>
<defs>
<linearGradient id="paint0_linear_39_113" x1="19.7076" y1="15.1992" x2="25.7767" y2="30.0347" gradientUnits="userSpaceOnUse">
<stop stop-color="#C59191"/>
<stop offset="1" stop-color="#9B5E5E"/>
</linearGradient>
<linearGradient id="paint1_linear_39_113" x1="39.5295" y1="21.8499" x2="36.0152" y2="21.8499" gradientUnits="userSpaceOnUse">
<stop stop-color="#9B5E5E" stop-opacity="0"/>
<stop offset="0.2469" stop-color="#955857" stop-opacity="0.247"/>
<stop offset="0.6116" stop-color="#854943" stop-opacity="0.612"/>
<stop offset="1" stop-color="#6D3326"/>
</linearGradient>
<linearGradient id="paint2_linear_39_113" x1="17.0587" y1="21.1887" x2="27.1957" y2="45.968" gradientUnits="userSpaceOnUse">
<stop stop-color="#FFFDF1"/>
<stop offset="1" stop-color="#FFF5C6"/>
</linearGradient>
<linearGradient id="paint3_linear_39_113" x1="41.7883" y1="33.3159" x2="49.3182" y2="33.3159" gradientUnits="userSpaceOnUse">
<stop stop-color="#FEA613" stop-opacity="0"/>
<stop offset="0.1832" stop-color="#FC9B19" stop-opacity="0.183"/>
<stop offset="0.5086" stop-color="#F57D28" stop-opacity="0.509"/>
<stop offset="0.9356" stop-color="#EB4C40" stop-opacity="0.936"/>
<stop offset="1" stop-color="#E94444"/>
</linearGradient>
<linearGradient id="paint4_linear_39_113" x1="39.0275" y1="33.3159" x2="36.1406" y2="33.3159" gradientUnits="userSpaceOnUse">
<stop stop-color="#FEA613" stop-opacity="0"/>
<stop offset="0.1832" stop-color="#FC9B19" stop-opacity="0.183"/>
<stop offset="0.5086" stop-color="#F57D28" stop-opacity="0.509"/>
<stop offset="0.9356" stop-color="#EB4C40" stop-opacity="0.936"/>
<stop offset="1" stop-color="#E94444"/>
</linearGradient>
<linearGradient id="paint5_linear_39_113" x1="40.4833" y1="40.7843" x2="40.4833" y2="36.7564" gradientUnits="userSpaceOnUse">
<stop stop-color="#FEA613" stop-opacity="0"/>
<stop offset="0.1832" stop-color="#FC9B19" stop-opacity="0.183"/>
<stop offset="0.5086" stop-color="#F57D28" stop-opacity="0.509"/>
<stop offset="0.9356" stop-color="#EB4C40" stop-opacity="0.936"/>
<stop offset="1" stop-color="#E94444"/>
</linearGradient>
<linearGradient id="paint6_linear_39_113" x1="7.51678" y1="40.7843" x2="7.51678" y2="36.7564" gradientUnits="userSpaceOnUse">
<stop stop-color="#FEA613" stop-opacity="0"/>
<stop offset="0.1832" stop-color="#FC9B19" stop-opacity="0.183"/>
<stop offset="0.5086" stop-color="#F57D28" stop-opacity="0.509"/>
<stop offset="0.9356" stop-color="#EB4C40" stop-opacity="0.936"/>
<stop offset="1" stop-color="#E94444"/>
</linearGradient>
<linearGradient id="paint7_linear_39_113" x1="8.47059" y1="33.3004" x2="14.8079" y2="33.3004" gradientUnits="userSpaceOnUse">
<stop stop-color="#FEA613" stop-opacity="0"/>
<stop offset="0.1832" stop-color="#FC9B19" stop-opacity="0.183"/>
<stop offset="0.5086" stop-color="#F57D28" stop-opacity="0.509"/>
<stop offset="0.9356" stop-color="#EB4C40" stop-opacity="0.936"/>
<stop offset="1" stop-color="#E94444"/>
</linearGradient>
<linearGradient id="paint8_linear_39_113" x1="5.22586" y1="41.4652" x2="8.39838" y2="44.6378" gradientUnits="userSpaceOnUse">
<stop stop-color="#99E6FC"/>
<stop offset="1" stop-color="#01C0FA"/>
</linearGradient>
<linearGradient id="paint9_linear_39_113" x1="5.36412" y1="43.081" x2="3.35631" y2="43.081" gradientUnits="userSpaceOnUse">
<stop stop-color="#017BAE" stop-opacity="0"/>
<stop offset="1" stop-color="#017BAE"/>
</linearGradient>
<linearGradient id="paint10_linear_39_113" x1="6.84149" y1="41.6036" x2="6.84149" y2="39.5957" gradientUnits="userSpaceOnUse">
<stop stop-color="#017BAE" stop-opacity="0"/>
<stop offset="1" stop-color="#017BAE"/>
</linearGradient>
<linearGradient id="paint11_linear_39_113" x1="39.5428" y1="41.4652" x2="42.7153" y2="44.6378" gradientUnits="userSpaceOnUse">
<stop stop-color="#99E6FC"/>
<stop offset="1" stop-color="#01C0FA"/>
</linearGradient>
<linearGradient id="paint12_linear_39_113" x1="39.681" y1="43.081" x2="37.6732" y2="43.081" gradientUnits="userSpaceOnUse">
<stop stop-color="#017BAE" stop-opacity="0"/>
<stop offset="1" stop-color="#017BAE"/>
</linearGradient>
<linearGradient id="paint13_linear_39_113" x1="41.1585" y1="41.6036" x2="41.1585" y2="39.5957" gradientUnits="userSpaceOnUse">
<stop stop-color="#017BAE" stop-opacity="0"/>
<stop offset="1" stop-color="#017BAE"/>
</linearGradient>
<linearGradient id="paint14_linear_39_113" x1="6.16537" y1="28.3514" x2="14.4501" y2="36.6361" gradientUnits="userSpaceOnUse">
<stop stop-color="#C59191"/>
<stop offset="1" stop-color="#9B5E5E"/>
</linearGradient>
<linearGradient id="paint15_linear_39_113" x1="25.7529" y1="36.1154" x2="27.8426" y2="36.1154" gradientUnits="userSpaceOnUse">
<stop stop-color="#9B5E5E" stop-opacity="0"/>
<stop offset="0.2469" stop-color="#955857" stop-opacity="0.247"/>
<stop offset="0.6116" stop-color="#854943" stop-opacity="0.612"/>
<stop offset="1" stop-color="#6D3326"/>
</linearGradient>
<linearGradient id="paint16_linear_39_113" x1="13.9294" y1="36.2217" x2="13.9294" y2="38.6705" gradientUnits="userSpaceOnUse">
<stop stop-color="#9B5E5E" stop-opacity="0"/>
<stop offset="0.2469" stop-color="#955857" stop-opacity="0.247"/>
<stop offset="0.6116" stop-color="#854943" stop-opacity="0.612"/>
<stop offset="1" stop-color="#6D3326"/>
</linearGradient>
<linearGradient id="paint17_linear_39_113" x1="26.3066" y1="28.3514" x2="34.5913" y2="36.6361" gradientUnits="userSpaceOnUse">
<stop stop-color="#C59191"/>
<stop offset="1" stop-color="#9B5E5E"/>
</linearGradient>
<linearGradient id="paint18_linear_39_113" x1="45.8941" y1="36.1154" x2="47.9838" y2="36.1154" gradientUnits="userSpaceOnUse">
<stop stop-color="#9B5E5E" stop-opacity="0"/>
<stop offset="0.2469" stop-color="#955857" stop-opacity="0.247"/>
<stop offset="0.6116" stop-color="#854943" stop-opacity="0.612"/>
<stop offset="1" stop-color="#6D3326"/>
</linearGradient>
<linearGradient id="paint19_linear_39_113" x1="34.0706" y1="36.2217" x2="34.0706" y2="38.6705" gradientUnits="userSpaceOnUse">
<stop stop-color="#9B5E5E" stop-opacity="0"/>
<stop offset="0.2469" stop-color="#955857" stop-opacity="0.247"/>
<stop offset="0.6116" stop-color="#854943" stop-opacity="0.612"/>
<stop offset="1" stop-color="#6D3326"/>
</linearGradient>
<linearGradient id="paint20_linear_39_113" x1="5.80154" y1="43.7149" x2="6.61725" y2="47.9816" gradientUnits="userSpaceOnUse">
<stop stop-color="#BBEC6C"/>
<stop offset="1" stop-color="#78A91F"/>
</linearGradient>
<linearGradient id="paint21_linear_39_113" x1="10.0066" y1="18.8713" x2="31.4675" y2="28.7546" gradientUnits="userSpaceOnUse">
<stop stop-color="#FFFDF1"/>
<stop offset="1" stop-color="#FFF5C6"/>
</linearGradient>
<linearGradient id="paint22_linear_39_113" x1="24.0001" y1="8" x2="24.0001" y2="2.5121" gradientUnits="userSpaceOnUse">
<stop stop-color="#FEA613" stop-opacity="0"/>
<stop offset="0.1832" stop-color="#FC9B19" stop-opacity="0.183"/>
<stop offset="0.5086" stop-color="#F57D28" stop-opacity="0.509"/>
<stop offset="0.9356" stop-color="#EB4C40" stop-opacity="0.936"/>
<stop offset="1" stop-color="#E94444"/>
</linearGradient>
<linearGradient id="paint23_linear_39_113" x1="24.0001" y1="39.0247" x2="24.0001" y2="33.754" gradientUnits="userSpaceOnUse">
<stop stop-color="#FEA613" stop-opacity="0"/>
<stop offset="0.1832" stop-color="#FC9B19" stop-opacity="0.183"/>
<stop offset="0.5086" stop-color="#F57D28" stop-opacity="0.509"/>
<stop offset="0.9356" stop-color="#EB4C40" stop-opacity="0.936"/>
<stop offset="1" stop-color="#E94444"/>
</linearGradient>
<linearGradient id="paint24_linear_39_113" x1="24.0001" y1="44.9882" x2="24.0001" y2="49.0397" gradientUnits="userSpaceOnUse">
<stop stop-color="#FEA613" stop-opacity="0"/>
<stop offset="0.1832" stop-color="#FC9B19" stop-opacity="0.183"/>
<stop offset="0.5086" stop-color="#F57D28" stop-opacity="0.509"/>
<stop offset="0.9356" stop-color="#EB4C40" stop-opacity="0.936"/>
<stop offset="1" stop-color="#E94444"/>
</linearGradient>
<linearGradient id="paint25_linear_39_113" x1="33.6" y1="25.3158" x2="39.1538" y2="25.3158" gradientUnits="userSpaceOnUse">
<stop stop-color="#FEA613" stop-opacity="0"/>
<stop offset="0.1832" stop-color="#FC9B19" stop-opacity="0.183"/>
<stop offset="0.5086" stop-color="#F57D28" stop-opacity="0.509"/>
<stop offset="0.9356" stop-color="#EB4C40" stop-opacity="0.936"/>
<stop offset="1" stop-color="#E94444"/>
</linearGradient>
<linearGradient id="paint26_linear_39_113" x1="11.8011" y1="30.9318" x2="13.4959" y2="30.9318" gradientUnits="userSpaceOnUse">
<stop stop-color="#E1D3CE"/>
<stop offset="1" stop-color="#9E9797"/>
</linearGradient>
<linearGradient id="paint27_linear_39_113" x1="14.9776" y1="30.9318" x2="16.6724" y2="30.9318" gradientUnits="userSpaceOnUse">
<stop stop-color="#E1D3CE"/>
<stop offset="1" stop-color="#9E9797"/>
</linearGradient>
<linearGradient id="paint28_linear_39_113" x1="18.7668" y1="31.4169" x2="20.4616" y2="31.4169" gradientUnits="userSpaceOnUse">
<stop stop-color="#E1D3CE"/>
<stop offset="1" stop-color="#9E9797"/>
</linearGradient>
<linearGradient id="paint29_linear_39_113" x1="23.6978" y1="31.4169" x2="25.3926" y2="31.4169" gradientUnits="userSpaceOnUse">
<stop stop-color="#E1D3CE"/>
<stop offset="1" stop-color="#9E9797"/>
</linearGradient>
<linearGradient id="paint30_linear_39_113" x1="28.7094" y1="31.4169" x2="30.4042" y2="31.4169" gradientUnits="userSpaceOnUse">
<stop stop-color="#E1D3CE"/>
<stop offset="1" stop-color="#9E9797"/>
</linearGradient>
<linearGradient id="paint31_linear_39_113" x1="33.3408" y1="31.4169" x2="35.0355" y2="31.4169" gradientUnits="userSpaceOnUse">
<stop stop-color="#E1D3CE"/>
<stop offset="1" stop-color="#9E9797"/>
</linearGradient>
<linearGradient id="paint32_linear_39_113" x1="13.3692" y1="25.4827" x2="20.3339" y2="41.2945" gradientUnits="userSpaceOnUse">
<stop stop-color="#FD8087"/>
<stop offset="1" stop-color="#E74335"/>
</linearGradient>
<linearGradient id="paint33_linear_39_113" x1="17.8571" y1="23.506" x2="24.8218" y2="39.3177" gradientUnits="userSpaceOnUse">
<stop stop-color="#FD8087"/>
<stop offset="1" stop-color="#E74335"/>
</linearGradient>
<linearGradient id="paint34_linear_39_113" x1="22.68" y1="21.3815" x2="29.6447" y2="37.1933" gradientUnits="userSpaceOnUse">
<stop stop-color="#FD8087"/>
<stop offset="1" stop-color="#E74335"/>
</linearGradient>
<linearGradient id="paint35_linear_39_113" x1="26.1843" y1="19.838" x2="33.149" y2="35.6498" gradientUnits="userSpaceOnUse">
<stop stop-color="#FD8087"/>
<stop offset="1" stop-color="#E74335"/>
</linearGradient>
<linearGradient id="paint36_linear_39_113" x1="29.0816" y1="18.5618" x2="36.0463" y2="34.3735" gradientUnits="userSpaceOnUse">
<stop stop-color="#FD8087"/>
<stop offset="1" stop-color="#E74335"/>
</linearGradient>
<linearGradient id="paint37_linear_39_113" x1="16.236" y1="26.1046" x2="24.5208" y2="34.3893" gradientUnits="userSpaceOnUse">
<stop stop-color="#C59191"/>
<stop offset="1" stop-color="#9B5E5E"/>
</linearGradient>
<linearGradient id="paint38_linear_39_113" x1="35.8236" y1="33.8687" x2="37.9133" y2="33.8687" gradientUnits="userSpaceOnUse">
<stop stop-color="#9B5E5E" stop-opacity="0"/>
<stop offset="0.2469" stop-color="#955857" stop-opacity="0.247"/>
<stop offset="0.6116" stop-color="#854943" stop-opacity="0.612"/>
<stop offset="1" stop-color="#6D3326"/>
</linearGradient>
<linearGradient id="paint39_linear_39_113" x1="24.0001" y1="33.9749" x2="24.0001" y2="36.4237" gradientUnits="userSpaceOnUse">
<stop stop-color="#9B5E5E" stop-opacity="0"/>
<stop offset="0.2469" stop-color="#955857" stop-opacity="0.247"/>
<stop offset="0.6116" stop-color="#854943" stop-opacity="0.612"/>
<stop offset="1" stop-color="#6D3326"/>
</linearGradient>
<linearGradient id="paint40_linear_39_113" x1="16.236" y1="-5.51736" x2="24.5207" y2="2.76734" gradientUnits="userSpaceOnUse">
<stop stop-color="#C59191"/>
<stop offset="1" stop-color="#9B5E5E"/>
</linearGradient>
<linearGradient id="paint41_linear_39_113" x1="35.8236" y1="2.24668" x2="37.9133" y2="2.24668" gradientUnits="userSpaceOnUse">
<stop stop-color="#9B5E5E" stop-opacity="0"/>
<stop offset="0.2469" stop-color="#955857" stop-opacity="0.247"/>
<stop offset="0.6116" stop-color="#854943" stop-opacity="0.612"/>
<stop offset="1" stop-color="#6D3326"/>
</linearGradient>
<linearGradient id="paint42_linear_39_113" x1="24.0001" y1="2.35294" x2="24.0001" y2="4.80179" gradientUnits="userSpaceOnUse">
<stop stop-color="#9B5E5E" stop-opacity="0"/>
<stop offset="0.2469" stop-color="#955857" stop-opacity="0.247"/>
<stop offset="0.6116" stop-color="#854943" stop-opacity="0.612"/>
<stop offset="1" stop-color="#6D3326"/>
</linearGradient>
<linearGradient id="paint43_linear_39_113" x1="14.7968" y1="17.2677" x2="17.9693" y2="20.4402" gradientUnits="userSpaceOnUse">
<stop stop-color="#99E6FC"/>
<stop offset="1" stop-color="#01C0FA"/>
</linearGradient>
<linearGradient id="paint44_linear_39_113" x1="14.9352" y1="18.8834" x2="12.9273" y2="18.8834" gradientUnits="userSpaceOnUse">
<stop stop-color="#017BAE" stop-opacity="0"/>
<stop offset="1" stop-color="#017BAE"/>
</linearGradient>
<linearGradient id="paint45_linear_39_113" x1="16.4125" y1="17.406" x2="16.4125" y2="15.3982" gradientUnits="userSpaceOnUse">
<stop stop-color="#017BAE" stop-opacity="0"/>
<stop offset="1" stop-color="#017BAE"/>
</linearGradient>
<linearGradient id="paint46_linear_39_113" x1="22.3842" y1="17.2677" x2="25.5567" y2="20.4402" gradientUnits="userSpaceOnUse">
<stop stop-color="#99E6FC"/>
<stop offset="1" stop-color="#01C0FA"/>
</linearGradient>
<linearGradient id="paint47_linear_39_113" x1="22.5226" y1="18.8834" x2="20.5148" y2="18.8834" gradientUnits="userSpaceOnUse">
<stop stop-color="#017BAE" stop-opacity="0"/>
<stop offset="1" stop-color="#017BAE"/>
</linearGradient>
<linearGradient id="paint48_linear_39_113" x1="23.9999" y1="17.406" x2="23.9999" y2="15.3982" gradientUnits="userSpaceOnUse">
<stop stop-color="#017BAE" stop-opacity="0"/>
<stop offset="1" stop-color="#017BAE"/>
</linearGradient>
<linearGradient id="paint49_linear_39_113" x1="29.9718" y1="17.2677" x2="33.1443" y2="20.4402" gradientUnits="userSpaceOnUse">
<stop stop-color="#99E6FC"/>
<stop offset="1" stop-color="#01C0FA"/>
</linearGradient>
<linearGradient id="paint50_linear_39_113" x1="30.1101" y1="18.8834" x2="28.1023" y2="18.8834" gradientUnits="userSpaceOnUse">
<stop stop-color="#017BAE" stop-opacity="0"/>
<stop offset="1" stop-color="#017BAE"/>
</linearGradient>
<linearGradient id="paint51_linear_39_113" x1="31.5875" y1="17.406" x2="31.5875" y2="15.3982" gradientUnits="userSpaceOnUse">
<stop stop-color="#017BAE" stop-opacity="0"/>
<stop offset="1" stop-color="#017BAE"/>
</linearGradient>
<linearGradient id="paint52_linear_39_113" x1="14.7968" y1="8.54617" x2="17.9693" y2="11.7187" gradientUnits="userSpaceOnUse">
<stop stop-color="#99E6FC"/>
<stop offset="1" stop-color="#01C0FA"/>
</linearGradient>
<linearGradient id="paint53_linear_39_113" x1="14.9352" y1="10.1618" x2="12.9273" y2="10.1618" gradientUnits="userSpaceOnUse">
<stop stop-color="#017BAE" stop-opacity="0"/>
<stop offset="1" stop-color="#017BAE"/>
</linearGradient>
<linearGradient id="paint54_linear_39_113" x1="16.4125" y1="8.68443" x2="16.4125" y2="6.67662" gradientUnits="userSpaceOnUse">
<stop stop-color="#017BAE" stop-opacity="0"/>
<stop offset="1" stop-color="#017BAE"/>
</linearGradient>
<linearGradient id="paint55_linear_39_113" x1="22.3842" y1="8.54617" x2="25.5567" y2="11.7187" gradientUnits="userSpaceOnUse">
<stop stop-color="#99E6FC"/>
<stop offset="1" stop-color="#01C0FA"/>
</linearGradient>
<linearGradient id="paint56_linear_39_113" x1="22.5226" y1="10.1618" x2="20.5148" y2="10.1618" gradientUnits="userSpaceOnUse">
<stop stop-color="#017BAE" stop-opacity="0"/>
<stop offset="1" stop-color="#017BAE"/>
</linearGradient>
<linearGradient id="paint57_linear_39_113" x1="23.9999" y1="8.68443" x2="23.9999" y2="6.67662" gradientUnits="userSpaceOnUse">
<stop stop-color="#017BAE" stop-opacity="0"/>
<stop offset="1" stop-color="#017BAE"/>
</linearGradient>
<linearGradient id="paint58_linear_39_113" x1="29.9718" y1="8.54617" x2="33.1443" y2="11.7187" gradientUnits="userSpaceOnUse">
<stop stop-color="#99E6FC"/>
<stop offset="1" stop-color="#01C0FA"/>
</linearGradient>
<linearGradient id="paint59_linear_39_113" x1="30.1101" y1="10.1618" x2="28.1023" y2="10.1618" gradientUnits="userSpaceOnUse">
<stop stop-color="#017BAE" stop-opacity="0"/>
<stop offset="1" stop-color="#017BAE"/>
</linearGradient>
<linearGradient id="paint60_linear_39_113" x1="31.5875" y1="8.68443" x2="31.5875" y2="6.67662" gradientUnits="userSpaceOnUse">
<stop stop-color="#017BAE" stop-opacity="0"/>
<stop offset="1" stop-color="#017BAE"/>
</linearGradient>
<linearGradient id="paint61_linear_39_113" x1="20.9012" y1="40.3533" x2="26.9861" y2="46.4383" gradientUnits="userSpaceOnUse">
<stop stop-color="#99E6FC"/>
<stop offset="1" stop-color="#01C0FA"/>
</linearGradient>
<linearGradient id="paint62_linear_39_113" x1="21.4608" y1="43.081" x2="18.0097" y2="43.081" gradientUnits="userSpaceOnUse">
<stop stop-color="#017BAE" stop-opacity="0"/>
<stop offset="1" stop-color="#017BAE"/>
</linearGradient>
<linearGradient id="paint63_linear_39_113" x1="24.0001" y1="40.5045" x2="24.0001" y2="37.0029" gradientUnits="userSpaceOnUse">
<stop stop-color="#017BAE" stop-opacity="0"/>
<stop offset="1" stop-color="#017BAE"/>
</linearGradient>
<linearGradient id="paint64_linear_39_113" x1="25.1545" y1="43.081" x2="23.429" y2="43.081" gradientUnits="userSpaceOnUse">
<stop stop-color="#017BAE" stop-opacity="0"/>
<stop offset="1" stop-color="#017BAE"/>
</linearGradient>
<linearGradient id="paint65_linear_39_113" x1="37.2911" y1="44.4956" x2="38.0676" y2="48.5662" gradientUnits="userSpaceOnUse">
<stop stop-color="#BBEC6C"/>
<stop offset="1" stop-color="#78A91F"/>
</linearGradient>
<clipPath id="clip0_39_113">
<rect width="48" height="48" fill="white"/>
</clipPath>
</defs>
</svg>
