<svg width="48" height="48" viewBox="0 0 48 48" fill="none" xmlns="http://www.w3.org/2000/svg">
<g id="map 1" clip-path="url(#clip0_39_338)">
<g id="Group">
<path id="Vector" d="M47.625 48H0.375C0.167906 48 0 47.8321 0 47.625V12.0611C0 11.854 0.167906 11.6861 0.375 11.6861H47.625C47.8321 11.6861 48 11.854 48 12.0611V47.625C48 47.8321 47.8321 48 47.625 48Z" fill="#F3F3F3"/>
<path id="Vector_2" d="M45.1027 11.6861V48H47.625C47.8321 48 48 47.8321 48 47.625V12.0611C48 11.854 47.8321 11.6861 47.625 11.6861H45.1027Z" fill="#E4E4E4"/>
<path id="Vector_3" d="M2.89734 44.7277V14.9585C2.89734 14.7514 3.06524 14.5835 3.27234 14.5835H44.7276C44.9347 14.5835 45.1026 14.7514 45.1026 14.9585V44.7276C45.1026 44.9347 44.9347 45.1026 44.7276 45.1026H3.27234C3.06524 45.1027 2.89734 44.9347 2.89734 44.7277Z" fill="#29CEF6"/>
<path id="Vector_4" d="M42.2052 14.5835V45.1026H44.7275C44.9346 45.1026 45.1025 44.9347 45.1025 44.7276V14.9585C45.1025 14.7514 44.9346 14.5835 44.7275 14.5835H42.2052Z" fill="#22B5ED"/>
<path id="Vector_5" d="M45.1027 23.5507C43.3175 22.8783 41.4749 22.3651 39.7916 21.9074C24.14 19.3861 26.2752 30.4663 16.7327 34.0835C12.9998 35.0524 8.85049 33.0389 5.22584 34.3243C4.29059 34.7458 3.52052 35.2561 2.89746 35.8306V44.7276C2.89746 44.9347 3.06537 45.1026 3.27246 45.1026H44.7277C44.9348 45.1026 45.1027 44.9347 45.1027 44.7276V23.5507Z" fill="#FFD54F"/>
<g id="Group_2">
<path id="Vector_6" d="M42.2052 22.5883V45.1026H44.7275C44.9346 45.1026 45.1025 44.9347 45.1025 44.7276V23.5507C44.142 23.1888 43.1654 22.8741 42.2052 22.5883Z" fill="#FFC328"/>
</g>
<path id="Vector_7" d="M2.89734 14.9585V25.3941C4.72781 25.2533 6.58425 25.4131 8.4104 25.5102C20.2087 26.6693 19.0888 18.5102 27.5074 14.5835H3.27234C3.06524 14.5835 2.89734 14.7514 2.89734 14.9585Z" fill="#9CCC65"/>
<g id="Group_3">
<path id="Vector_8" d="M24.6101 14.5835C17.1443 18.0658 17.1788 24.8755 9.05383 25.5643C20.1691 26.3663 19.2454 18.4373 27.5075 14.5835H24.6101Z" fill="#8BC34A"/>
</g>
<path id="Vector_9" d="M43.3592 10.5881C43.3592 17.0252 38.862 18.6231 36.6691 22.4886C34.4762 26.3541 34.5874 28.9739 32.832 28.9739C31.1397 28.9739 31.1379 26.1617 28.9949 22.4886C26.6923 18.5419 22.3048 17.0252 22.3048 10.5881C22.3049 4.74047 27.0181 0 32.8321 0C38.6461 0 43.3592 4.74047 43.3592 10.5881Z" fill="#F75632"/>
<path id="Vector_10" d="M32.8321 0C32.3405 0 31.8571 0.0346875 31.3834 0.100219C36.5117 0.810281 40.4619 5.23481 40.4619 10.588C40.4619 17.0251 35.9647 18.623 33.7718 22.4885C32.4495 24.8191 31.9649 26.6957 31.4038 27.8195C31.7747 28.5502 32.1765 28.9738 32.8321 28.9738C34.5874 28.9738 34.4762 26.354 36.6691 22.4885C38.8621 18.623 43.3592 17.0251 43.3592 10.588C43.3592 4.74047 38.6461 0 32.8321 0Z" fill="#E33629"/>
<g id="Group_4">
<path id="Vector_11" d="M33.8264 32.1535L34.8694 31.1106C35.144 30.836 35.144 30.3908 34.8693 30.1162C34.5948 29.8417 34.1496 29.8417 33.875 30.1163L32.8321 31.1593L31.7892 30.1163C31.5146 29.8417 31.0694 29.8417 30.7949 30.1162C30.5202 30.3909 30.5202 30.8361 30.7948 31.1106L31.8378 32.1535L30.7948 33.1965C30.5202 33.4711 30.5202 33.9162 30.7949 34.1908C30.9321 34.3281 31.1121 34.3967 31.2921 34.3967C31.472 34.3967 31.652 34.3281 31.7893 34.1907L32.8322 33.1477L33.8751 34.1907C34.0124 34.3281 34.1923 34.3967 34.3723 34.3967C34.5522 34.3967 34.7322 34.3281 34.8695 34.1908C35.1441 33.9161 35.1441 33.471 34.8695 33.1965L33.8264 32.1535Z" fill="#546E7A"/>
<path id="Vector_12" d="M33.313 35.4227C32.972 35.2369 32.545 35.3629 32.3593 35.704C32.2707 35.8668 32.1819 36.0267 32.0924 36.1836C31.8998 36.5208 32.0172 36.9503 32.3545 37.1427C32.4645 37.2054 32.5842 37.2353 32.7024 37.2353C32.9465 37.2353 33.184 37.1079 33.3138 36.8806C33.4079 36.7157 33.5012 36.5475 33.5944 36.3763C33.78 36.0353 33.6541 35.6083 33.313 35.4227Z" fill="#546E7A"/>
<path id="Vector_13" d="M16.7974 38.606C16.4361 38.6029 16.0692 38.6071 15.7027 38.6195C15.3146 38.6328 15.0106 38.958 15.0239 39.3461C15.0369 39.7262 15.3489 40.0253 15.7261 40.0253C15.7342 40.0253 15.7424 40.0253 15.7505 40.025C16.0966 40.0132 16.4429 40.009 16.7842 40.0122H16.7909C17.1761 40.0122 17.4902 39.7016 17.4939 39.3157C17.4975 38.9273 17.1856 38.6096 16.7974 38.606Z" fill="#546E7A"/>
<path id="Vector_14" d="M12.9754 38.8619C12.6109 38.9147 12.2468 38.9759 11.8931 39.0438C11.5117 39.117 11.262 39.4856 11.3353 39.8669C11.3999 40.2035 11.6945 40.4375 12.0249 40.4375C12.0689 40.4375 12.1136 40.4333 12.1584 40.4247C12.491 40.3608 12.8336 40.3032 13.1768 40.2536C13.5612 40.198 13.8275 39.8414 13.772 39.457C13.7164 39.0727 13.3594 38.8058 12.9754 38.8619Z" fill="#546E7A"/>
<path id="Vector_15" d="M9.22902 39.7309C8.87268 39.8488 8.52252 39.9765 8.18811 40.1107C7.82765 40.2551 7.65261 40.6644 7.79718 41.0249C7.90733 41.2996 8.17115 41.4666 8.44996 41.4666C8.53715 41.4666 8.62565 41.4503 8.71143 41.4158C9.01902 41.2926 9.3419 41.1748 9.67077 41.066C10.0395 40.944 10.2394 40.5462 10.1174 40.1775C9.99552 39.809 9.59811 39.6088 9.22902 39.7309Z" fill="#546E7A"/>
<path id="Vector_16" d="M27.7562 39.6496C27.4523 39.7034 27.1253 39.7397 26.7848 39.7574C26.3969 39.7778 26.099 40.1084 26.1191 40.4963C26.1387 40.8716 26.4492 41.1627 26.8207 41.1627C26.833 41.1627 26.8455 41.1624 26.8579 41.1618C27.256 41.141 27.6408 41.098 28.0013 41.0342C28.3837 40.9665 28.6388 40.6016 28.571 40.2193C28.5035 39.8369 28.1387 39.5814 27.7562 39.6496Z" fill="#546E7A"/>
<path id="Vector_17" d="M30.6488 38.1853C30.4195 38.4153 30.1852 38.612 29.9323 38.7867C29.6129 39.0075 29.533 39.4455 29.7539 39.765C29.8904 39.9623 30.1098 40.0683 30.3329 40.0683C30.4708 40.0683 30.6101 40.0278 30.7322 39.9434C31.0512 39.7227 31.3582 39.4655 31.6444 39.1787C31.9186 38.9037 31.9181 38.4585 31.6432 38.1843C31.3683 37.9099 30.9232 37.9104 30.6488 38.1853Z" fill="#546E7A"/>
<path id="Vector_18" d="M24.2561 39.6275C23.9392 39.5869 23.6024 39.5374 23.2265 39.4762C22.8432 39.4137 22.482 39.6738 22.4195 40.057C22.3571 40.4403 22.6171 40.8016 23.0004 40.864C23.3923 40.928 23.7446 40.9796 24.0776 41.0223C24.1079 41.0261 24.138 41.0281 24.1678 41.0281C24.5163 41.0281 24.8189 40.769 24.8643 40.4141C24.9136 40.0291 24.6414 39.6769 24.2561 39.6275Z" fill="#546E7A"/>
<path id="Vector_19" d="M20.6139 39.0107C20.2115 38.9399 19.8623 38.8823 19.5462 38.8345C19.1638 38.7768 18.8038 39.0408 18.746 39.4249C18.6881 39.8089 18.9523 40.1671 19.3363 40.225C19.6409 40.271 19.979 40.3268 20.3699 40.3957C20.4112 40.4029 20.4523 40.4063 20.4928 40.4063C20.8276 40.4063 21.1243 40.1663 21.1844 39.8251C21.2518 39.4427 20.9963 39.0781 20.6139 39.0107Z" fill="#546E7A"/>
<path id="Vector_20" d="M5.70084 41.3879C5.53172 41.4985 5.36587 41.6134 5.20762 41.7294C4.8945 41.959 4.82681 42.3991 5.0565 42.7122C5.19431 42.9001 5.40768 42.9996 5.62406 42.9996C5.76834 42.9996 5.91403 42.9552 6.03937 42.8633C6.17747 42.7621 6.32259 42.6616 6.4709 42.5645C6.79584 42.3518 6.88697 41.9161 6.67425 41.5912C6.46162 41.2663 6.02559 41.1751 5.70084 41.3879Z" fill="#546E7A"/>
</g>
<path id="Vector_21" d="M32.8321 15.3188C35.4813 15.3188 37.6288 13.1713 37.6288 10.5222C37.6288 7.87312 35.4813 5.72559 32.8321 5.72559C30.183 5.72559 28.0355 7.87312 28.0355 10.5222C28.0355 13.1713 30.183 15.3188 32.8321 15.3188Z" fill="#F3F3F3"/>
</g>
</g>
<defs>
<clipPath id="clip0_39_338">
<rect width="48" height="48" fill="white"/>
</clipPath>
</defs>
</svg>
