<svg width="48" height="48" viewBox="0 0 48 48" fill="none" xmlns="http://www.w3.org/2000/svg">
<g id="price-tag 1" clip-path="url(#clip0_39_421)">
<g id="Group">
<path id="Vector" d="M26.0267 10.0691L17.7884 4.69919H10.1722L1.93388 10.0681C0.728325 10.8543 0.00183105 12.1968 0.00183105 13.6356V43.7426C0.00183105 45.1043 0.639102 46.316 1.63411 47.0952C2.35647 47.6615 3.26941 48 4.25924 48H23.7014C24.7146 48 25.6448 47.6474 26.3743 47.0567C27.3428 46.2766 27.9599 45.0821 27.9599 43.7426V13.6356C27.9599 12.1968 27.2324 10.8543 26.0267 10.0691ZM13.9808 14.4795C12.2675 14.4785 10.8784 13.0894 10.8784 11.3771C10.8795 9.6638 12.2686 8.27472 13.9808 8.27472C15.6931 8.27472 17.0822 9.6638 17.0832 11.3771C17.0832 13.0894 15.6942 14.4785 13.9808 14.4795Z" fill="url(#paint0_linear_39_421)"/>
<path id="Vector_2" d="M4.93407 22.8505C11.1856 22.8505 16.3335 18.1285 17.0076 12.0567C16.6975 13.4422 15.4605 14.4787 13.9808 14.4795C12.2675 14.4785 10.8784 13.0894 10.8784 11.3771C10.8795 9.6638 12.2686 8.27472 13.9808 8.27472C15.6173 8.27472 16.9576 9.54371 17.0741 11.1517C17.0796 11.0022 17.0832 10.8521 17.0832 10.7013C17.0832 8.51811 16.507 6.46973 15.4989 4.6991H10.1723L1.93397 10.068C0.728325 10.8543 0.00183105 12.1968 0.00183105 13.6356V21.8069C1.50913 22.4774 3.17793 22.8505 4.93407 22.8505Z" fill="url(#paint1_linear_39_421)"/>
<path id="Vector_3" d="M4.4458 19.7784V48H23.7014C24.7146 48 25.6448 47.6474 26.3743 47.0567C27.3428 46.2766 27.9599 45.0821 27.9599 43.7426V19.7784H4.4458Z" fill="url(#paint2_linear_39_421)"/>
<path id="Vector_4" d="M0.00183105 37.6662V43.7426C0.00183105 45.1043 0.639102 46.316 1.63411 47.0953C2.35647 47.6616 3.26941 48 4.25924 48H23.7014C24.7146 48 25.6448 47.6474 26.3743 47.0568C27.3428 46.2766 27.9599 45.0821 27.9599 43.7426V37.6662H0.00183105Z" fill="url(#paint3_linear_39_421)"/>
<g id="Group_2">
<path id="Vector_5" d="M46.7509 24.3784L25.4619 3.08932C24.4447 2.0721 22.9818 1.63709 21.5733 1.93412L10.2192 4.3281C8.56798 4.67558 7.27885 5.96471 6.93137 7.61591L4.53749 18.9699C4.24045 20.3784 4.67546 21.8412 5.69269 22.8585L26.9817 44.1475C27.9445 45.1103 29.2522 45.5161 30.5069 45.3637C31.418 45.2536 32.3027 44.8478 33.0029 44.1475L46.7509 30.3995C47.467 29.6834 47.8756 28.7762 47.9736 27.8425C48.1063 26.6065 47.6979 25.3254 46.7509 24.3784ZM16.1741 13.5707C14.9619 14.7816 12.9977 14.7816 11.7868 13.5707C10.576 12.3585 10.576 10.3944 11.7868 9.18344C12.9977 7.97262 14.9619 7.97262 16.1741 9.18344C17.3849 10.3944 17.3849 12.3586 16.1741 13.5707Z" fill="url(#paint4_linear_39_421)"/>
<path id="Vector_6" d="M15.0406 14.289V32.2063L5.69297 22.8586C4.67575 21.8414 4.24008 20.3784 4.53796 18.97L5.81354 12.9172H11.2878C11.4205 13.1512 11.5877 13.3711 11.7873 13.5706C12.6668 14.4502 13.9434 14.6872 15.0406 14.289Z" fill="url(#paint5_linear_39_421)"/>
<g id="Group_3">
<path id="Vector_7" d="M47.9737 27.8425C47.8755 28.7762 47.4671 29.6834 46.7509 30.3995L33.0029 44.1476C32.3026 44.8478 31.418 45.2536 30.5069 45.3638L21.7522 36.6091C21.2363 36.3213 20.9299 35.7776 20.9299 35.2749C20.9299 35.1012 20.9883 34.8969 21.0758 34.7232L31.2801 13.7617C31.5121 13.267 31.9776 13.0349 32.5002 13.0349C33.1009 13.0349 33.7482 13.3678 34.0466 13.9156L47.9737 27.8425Z" fill="url(#paint6_linear_39_421)"/>
<path id="Vector_8" d="M42.9816 34.1689L34.792 42.3585L17.8119 25.3784C16.9857 24.7616 16.4817 23.7643 16.4817 22.2802V18.1515C16.4817 15.2736 18.3716 14.2271 20.8423 14.2271C22.3888 14.2271 23.7243 14.6475 24.4975 15.6847L42.9816 34.1689Z" fill="url(#paint7_linear_39_421)"/>
<path id="Vector_9" d="M44.975 32.1754L36.7854 40.3651L31.1315 34.7099C30.3053 34.0932 29.8013 33.0972 29.8013 31.6118V27.4831C29.8013 24.6051 31.6911 23.5587 34.162 23.5587C35.7085 23.5587 37.044 23.9791 37.8159 25.0176L44.975 32.1754Z" fill="url(#paint8_linear_39_421)"/>
<g id="Group_4">
<path id="Vector_10" d="M16.3643 22.1619V18.0336C16.3643 15.1555 18.254 14.1089 20.725 14.1089C23.1671 14.1089 25.086 15.1555 25.086 18.0336V22.1619C25.086 25.04 23.1671 26.0866 20.725 26.0866C18.254 26.0866 16.3643 25.04 16.3643 22.1619ZM22.1787 18.0336C22.1787 17.0743 21.6263 16.6381 20.725 16.6381C19.8238 16.6381 19.3005 17.0743 19.3005 18.0336V22.1619C19.3005 23.1212 19.8237 23.5574 20.725 23.5574C21.6264 23.5574 22.1787 23.1212 22.1787 22.1619V18.0336ZM34.0982 14.4578C34.0982 14.6323 34.0691 14.8358 33.9819 15.0103L23.7485 35.9712C23.5451 36.4073 22.9927 36.698 22.4403 36.698C21.4519 36.698 20.8122 35.8841 20.8122 35.1572C20.8122 34.9828 20.8704 34.7792 20.9576 34.6048L31.1618 13.6439C31.3945 13.1497 31.8596 12.917 32.3829 12.917C33.1969 12.9169 34.0982 13.5274 34.0982 14.4578ZM29.7084 31.523V27.3948C29.7084 24.5167 31.598 23.4701 34.0691 23.4701C36.5112 23.4701 38.4299 24.5167 38.4299 27.3948V31.523C38.4299 34.4012 36.5112 35.4478 34.0691 35.4478C31.598 35.4478 29.7084 34.4012 29.7084 31.523ZM35.5227 27.3948C35.5227 26.4355 34.9703 25.9993 34.0691 25.9993C33.1679 25.9993 32.6445 26.4355 32.6445 27.3948V31.523C32.6445 32.4825 33.1679 32.9185 34.0691 32.9185C34.9703 32.9185 35.5227 32.4825 35.5227 31.523V27.3948Z" fill="url(#paint9_linear_39_421)"/>
</g>
</g>
</g>
<path id="Vector_11" d="M16.1745 9.18353C15.5372 8.54824 14.6942 8.24631 13.8603 8.27878C13.5614 9.92621 12.4337 11.287 10.9261 11.9131C10.3526 12.1512 9.72344 12.2829 9.06387 12.2829C7.97267 12.2829 6.96354 11.9223 6.15093 11.3153C4.96043 10.4247 4.18838 9.00424 4.18838 7.40744C4.18838 4.71944 6.37483 2.53299 9.06387 2.53299C10.3587 2.53299 11.5361 3.03962 12.4095 3.86635L15.2099 3.27567C13.8775 1.30089 11.6191 0 9.06387 0C4.9786 0 1.6554 3.32226 1.6554 7.40744C1.6554 10.2403 3.25323 12.7075 5.59573 13.9527C6.63121 14.5038 7.81154 14.8159 9.06387 14.8159C10.2544 14.8159 11.38 14.5332 12.377 14.0317C14.2696 13.0824 15.7013 11.3437 16.2383 9.25148C16.2179 9.22814 16.1967 9.20584 16.1745 9.18353Z" fill="url(#paint10_linear_39_421)"/>
<path id="Vector_12" d="M13.8603 8.27878C13.5614 9.92622 12.4338 11.287 10.9261 11.9131C10.3526 12.1513 9.72345 12.2829 9.06387 12.2829C8.7994 12.2829 8.53992 12.2614 8.28674 12.2206V14.7747C8.54227 14.8014 8.80138 14.8159 9.06387 14.8159C10.2544 14.8159 11.38 14.5332 12.377 14.0317C14.2696 13.0824 15.7013 11.3437 16.2383 9.25149C16.218 9.22814 16.1968 9.20584 16.1745 9.18363C15.5371 8.54833 14.6942 8.2464 13.8603 8.27878Z" fill="url(#paint11_linear_39_421)"/>
<path id="Vector_13" d="M9.06387 0C8.80138 0 8.54227 0.0142118 8.28674 0.0409412V2.59558C8.53992 2.55492 8.79931 2.53299 9.06387 2.53299C10.3587 2.53299 11.5361 3.03962 12.4095 3.86635L15.2099 3.27567C13.8775 1.30089 11.6191 0 9.06387 0Z" fill="url(#paint12_linear_39_421)"/>
</g>
</g>
<defs>
<linearGradient id="paint0_linear_39_421" x1="2.0935" y1="16.8023" x2="29.2368" y2="43.9457" gradientUnits="userSpaceOnUse">
<stop stop-color="#FEE45A"/>
<stop offset="1" stop-color="#FEA613"/>
</linearGradient>
<linearGradient id="paint1_linear_39_421" x1="2.97896" y1="20.2089" x2="13.3135" y2="7.94936" gradientUnits="userSpaceOnUse">
<stop stop-color="#FEA613" stop-opacity="0"/>
<stop offset="1" stop-color="#E94444"/>
</linearGradient>
<linearGradient id="paint2_linear_39_421" x1="8.88251" y1="36.6458" x2="19.1157" y2="31.6812" gradientUnits="userSpaceOnUse">
<stop stop-color="#FEA613" stop-opacity="0"/>
<stop offset="1" stop-color="#E94444"/>
</linearGradient>
<linearGradient id="paint3_linear_39_421" x1="13.9808" y1="43.7405" x2="13.9808" y2="48.8105" gradientUnits="userSpaceOnUse">
<stop stop-color="#FEA613" stop-opacity="0"/>
<stop offset="1" stop-color="#E94444"/>
</linearGradient>
<linearGradient id="paint4_linear_39_421" x1="9.33137" y1="6.72801" x2="49.8996" y2="47.2962" gradientUnits="userSpaceOnUse">
<stop stop-color="#8AC9FE"/>
<stop offset="1" stop-color="#814AA0"/>
</linearGradient>
<linearGradient id="paint5_linear_39_421" x1="11.2056" y1="19.818" x2="3.47283" y2="12.9024" gradientUnits="userSpaceOnUse">
<stop stop-color="#5B3374" stop-opacity="0"/>
<stop offset="1" stop-color="#5B3374"/>
</linearGradient>
<linearGradient id="paint6_linear_39_421" x1="38.444" y1="32.5516" x2="21.5343" y2="24.1299" gradientUnits="userSpaceOnUse">
<stop stop-color="#5B3374" stop-opacity="0"/>
<stop offset="1" stop-color="#5B3374"/>
</linearGradient>
<linearGradient id="paint7_linear_39_421" x1="26.0273" y1="27.0745" x2="14.6904" y2="21.5869" gradientUnits="userSpaceOnUse">
<stop stop-color="#5B3374" stop-opacity="0"/>
<stop offset="1" stop-color="#5B3374"/>
</linearGradient>
<linearGradient id="paint8_linear_39_421" x1="42.7474" y1="35.1289" x2="28.4902" y2="28.2325" gradientUnits="userSpaceOnUse">
<stop stop-color="#5B3374" stop-opacity="0"/>
<stop offset="1" stop-color="#5B3374"/>
</linearGradient>
<linearGradient id="paint9_linear_39_421" x1="16.3643" y1="24.8074" x2="25.086" y2="24.8074" gradientUnits="userSpaceOnUse">
<stop stop-color="#EAF6FF"/>
<stop offset="1" stop-color="#B3DAFE"/>
</linearGradient>
<linearGradient id="paint10_linear_39_421" x1="3.43676" y1="1.78099" x2="12.2045" y2="10.5488" gradientUnits="userSpaceOnUse">
<stop stop-color="#B3DAFE"/>
<stop offset="1" stop-color="#4FC123"/>
</linearGradient>
<linearGradient id="paint11_linear_39_421" x1="12.2041" y1="11.5208" x2="15.4524" y2="8.27257" gradientUnits="userSpaceOnUse">
<stop stop-color="#4FC123" stop-opacity="0"/>
<stop offset="1" stop-color="#017B4E"/>
</linearGradient>
<linearGradient id="paint12_linear_39_421" x1="10.3824" y1="0.905224" x2="12.8817" y2="4.62033" gradientUnits="userSpaceOnUse">
<stop stop-color="#4FC123" stop-opacity="0"/>
<stop offset="1" stop-color="#017B4E"/>
</linearGradient>
<clipPath id="clip0_39_421">
<rect width="48" height="48" fill="white"/>
</clipPath>
</defs>
</svg>
